<svg width="1920" height="1080" viewBox="0 0 1920 1080" fill="none" xmlns="http://www.w3.org/2000/svg">
<rect width="1920" height="1080" fill="#F3F3F3"/>
<path d="M497.522 614.4C486.455 614.4 476.189 612.6 466.722 609C457.389 605.4 449.255 600.333 442.322 593.8C435.522 587.267 430.189 579.6 426.322 570.8C422.589 562 420.722 552.4 420.722 542C420.722 531.6 422.589 522 426.322 513.2C430.189 504.4 435.589 496.733 442.522 490.2C449.455 483.667 457.589 478.6 466.922 475C476.255 471.4 486.389 469.6 497.322 469.6C508.389 469.6 518.522 471.4 527.722 475C537.055 478.6 545.122 483.667 551.922 490.2C558.855 496.733 564.255 504.4 568.122 513.2C571.989 521.867 573.922 531.467 573.922 542C573.922 552.4 571.989 562.067 568.122 571C564.255 579.8 558.855 587.467 551.922 594C545.122 600.4 537.055 605.4 527.722 609C518.522 612.6 508.455 614.4 497.522 614.4ZM497.322 586.8C503.589 586.8 509.322 585.733 514.522 583.6C519.855 581.467 524.522 578.4 528.522 574.4C532.522 570.4 535.589 565.667 537.722 560.2C539.989 554.733 541.122 548.667 541.122 542C541.122 535.333 539.989 529.267 537.722 523.8C535.589 518.333 532.522 513.6 528.522 509.6C524.655 505.6 520.055 502.533 514.722 500.4C509.389 498.267 503.589 497.2 497.322 497.2C491.055 497.2 485.255 498.267 479.922 500.4C474.722 502.533 470.122 505.6 466.122 509.6C462.122 513.6 458.989 518.333 456.722 523.8C454.589 529.267 453.522 535.333 453.522 542C453.522 548.533 454.589 554.6 456.722 560.2C458.989 565.667 462.055 570.4 465.922 574.4C469.922 578.4 474.589 581.467 479.922 583.6C485.255 585.733 491.055 586.8 497.322 586.8ZM598.272 612V472H625.072L707.672 572.8H694.672V472H726.672V612H700.072L617.272 511.2H630.272V612H598.272ZM759.795 612V472H786.595L869.195 572.8H856.195V472H888.195V612H861.595L778.795 511.2H791.795V612H759.795ZM951.119 528.4H1018.52V553.6H951.119V528.4ZM953.519 586H1029.72V612H921.319V472H1027.12V498H953.519V586ZM1122.5 614.4C1111.7 614.4 1101.63 612.667 1092.3 609.2C1083.1 605.6 1075.1 600.533 1068.3 594C1061.5 587.467 1056.17 579.8 1052.3 571C1048.57 562.2 1046.7 552.533 1046.7 542C1046.7 531.467 1048.57 521.8 1052.3 513C1056.17 504.2 1061.5 496.533 1068.3 490C1075.23 483.467 1083.3 478.467 1092.5 475C1101.7 471.4 1111.77 469.6 1122.7 469.6C1134.83 469.6 1145.77 471.733 1155.5 476C1165.37 480.133 1173.63 486.267 1180.3 494.4L1159.5 513.6C1154.7 508.133 1149.37 504.067 1143.5 501.4C1137.63 498.6 1131.23 497.2 1124.3 497.2C1117.77 497.2 1111.77 498.267 1106.3 500.4C1100.83 502.533 1096.1 505.6 1092.1 509.6C1088.1 513.6 1084.97 518.333 1082.7 523.8C1080.57 529.267 1079.5 535.333 1079.5 542C1079.5 548.667 1080.57 554.733 1082.7 560.2C1084.97 565.667 1088.1 570.4 1092.1 574.4C1096.1 578.4 1100.83 581.467 1106.3 583.6C1111.77 585.733 1117.77 586.8 1124.3 586.8C1131.23 586.8 1137.63 585.467 1143.5 582.8C1149.37 580 1154.7 575.8 1159.5 570.2L1180.3 589.4C1173.63 597.533 1165.37 603.733 1155.5 608C1145.77 612.267 1134.77 614.4 1122.5 614.4ZM1229.81 612V498.4H1185.01V472H1307.01V498.4H1262.21V612H1229.81ZM1324.44 612V472H1356.84V612H1324.44ZM1458.07 614.4C1447 614.4 1436.74 612.6 1427.27 609C1417.94 605.4 1409.8 600.333 1402.87 593.8C1396.07 587.267 1390.74 579.6 1386.87 570.8C1383.14 562 1381.27 552.4 1381.27 542C1381.27 531.6 1383.14 522 1386.87 513.2C1390.74 504.4 1396.14 496.733 1403.07 490.2C1410 483.667 1418.14 478.6 1427.47 475C1436.8 471.4 1446.94 469.6 1457.87 469.6C1468.94 469.6 1479.07 471.4 1488.27 475C1497.6 478.6 1505.67 483.667 1512.47 490.2C1519.4 496.733 1524.8 504.4 1528.67 513.2C1532.54 521.867 1534.47 531.467 1534.47 542C1534.47 552.4 1532.54 562.067 1528.67 571C1524.8 579.8 1519.4 587.467 1512.47 594C1505.67 600.4 1497.6 605.4 1488.27 609C1479.07 612.6 1469 614.4 1458.07 614.4ZM1457.87 586.8C1464.14 586.8 1469.87 585.733 1475.07 583.6C1480.4 581.467 1485.07 578.4 1489.07 574.4C1493.07 570.4 1496.14 565.667 1498.27 560.2C1500.54 554.733 1501.67 548.667 1501.67 542C1501.67 535.333 1500.54 529.267 1498.27 523.8C1496.14 518.333 1493.07 513.6 1489.07 509.6C1485.2 505.6 1480.6 502.533 1475.27 500.4C1469.94 498.267 1464.14 497.2 1457.87 497.2C1451.6 497.2 1445.8 498.267 1440.47 500.4C1435.27 502.533 1430.67 505.6 1426.67 509.6C1422.67 513.6 1419.54 518.333 1417.27 523.8C1415.14 529.267 1414.07 535.333 1414.07 542C1414.07 548.533 1415.14 554.6 1417.27 560.2C1419.54 565.667 1422.6 570.4 1426.47 574.4C1430.47 578.4 1435.14 581.467 1440.47 583.6C1445.8 585.733 1451.6 586.8 1457.87 586.8ZM1558.82 612V472H1585.62L1668.22 572.8H1655.22V472H1687.22V612H1660.62L1577.82 511.2H1590.82V612H1558.82Z" fill="#771111"/>
<mask id="path-2-inside-1_19_84" fill="white">
<path d="M374.877 542.04C374.877 556.32 370.643 570.279 362.709 582.152C354.776 594.025 343.5 603.279 330.307 608.744C317.114 614.209 302.597 615.639 288.591 612.853C274.586 610.067 261.721 603.19 251.624 593.093C241.526 582.996 234.65 570.131 231.864 556.125C229.078 542.12 230.508 527.603 235.972 514.41C241.437 501.217 250.691 489.941 262.565 482.007C274.438 474.074 288.397 469.839 302.677 469.839L302.677 542.04H374.877Z"/>
</mask>
<path d="M374.877 542.04C374.877 556.32 370.643 570.279 362.709 582.152C354.776 594.025 343.5 603.279 330.307 608.744C317.114 614.209 302.597 615.639 288.591 612.853C274.586 610.067 261.721 603.19 251.624 593.093C241.526 582.996 234.65 570.131 231.864 556.125C229.078 542.12 230.508 527.603 235.972 514.41C241.437 501.217 250.691 489.941 262.565 482.007C274.438 474.074 288.397 469.839 302.677 469.839L302.677 542.04H374.877Z" fill="#771111" stroke="#771111" stroke-width="2" mask="url(#path-2-inside-1_19_84)"/>
<line x1="303.363" y1="439" x2="303.363" y2="454.964" stroke="#771111" stroke-width="5"/>
<line x1="303.363" y1="624.036" x2="303.363" y2="640" stroke="#771111" stroke-width="5"/>
<line x1="200" y1="539.903" x2="215.964" y2="539.903" stroke="#771111" stroke-width="5"/>
<line x1="251.145" y1="452.263" x2="259.127" y2="466.088" stroke="#771111" stroke-width="5"/>
<line x1="346.566" y1="616.981" x2="354.548" y2="630.806" stroke="#771111" stroke-width="5"/>
<line x1="213.223" y1="489.08" x2="227.048" y2="497.062" stroke="#771111" stroke-width="5"/>
<line x1="378.304" y1="584.138" x2="392.129" y2="592.12" stroke="#771111" stroke-width="5"/>
<line x1="227.048" y1="586.291" x2="213.223" y2="594.273" stroke="#771111" stroke-width="5"/>
<line x1="259.891" y1="618.03" x2="251.909" y2="631.855" stroke="#771111" stroke-width="5"/>
<line x1="377.255" y1="497.826" x2="391.08" y2="489.844" stroke="#8B4B4B" stroke-width="5"/>
<line x1="344.413" y1="466.088" x2="352.395" y2="452.263" stroke="#8B4B4B" stroke-width="5"/>
<line x1="389.027" y1="539.903" x2="404.991" y2="539.903" stroke="#8B4B4B" stroke-width="5"/>
</svg>
